PathFileType	4	(X/Y/Z)	C:\Git\research_data\Projects\squatting_fais\c3dfiles\036\SJ_pre2\markers_experimental.trc
DataRate	CameraRate	NumFrames	NumMarkers	Units	OrigDataRate	OrigDataStartFrame	OrigNumFrames
200.000000	200.000000	4	62	mm	200.000000	1048	1677
Frame#	Time	FHD			LBHD			RBHD			C7			T10			CLAV			LSHO			LUUPA			LMUPA			LDUPA			LLEP			LMEP			LRAD			LUL			LRFIN			RSHO			RUPA1			RMUPA			RDUPA			RLEP			RMEP			RRAD			RUL			RUFIN			LASI			RASI			USACR			LSACR			RSACR			LTHI1			LTHI2			LTHI3			LTHI4			LLFC			LMFC			LTIB1			LTIB2			LTIB3			LTIB4			LLMAL			LMMAL			LHEE			LMT1			LMT2			LMT5			RTHI			RTHI2			RTHI3			RTHI4			RLFC			RMFC			RTIB1			RTIB2			RTIB3			RTIB4			RLMAL			RMMAL			RHEE			RMT1			RMT2			RMT5			*61			
		X1	Y1	Z1	X2	Y2	Z2	X3	Y3	Z3	X4	Y4	Z4	X5	Y5	Z5	X6	Y6	Z6	X7	Y7	Z7	X8	Y8	Z8	X9	Y9	Z9	X10	Y10	Z10	X11	Y11	Z11	X12	Y12	Z12	X13	Y13	Z13	X14	Y14	Z14	X15	Y15	Z15	X16	Y16	Z16	X17	Y17	Z17	X18	Y18	Z18	X19	Y19	Z19	X20	Y20	Z20	X21	Y21	Z21	X22	Y22	Z22	X23	Y23	Z23	X24	Y24	Z24	X25	Y25	Z25	X26	Y26	Z26	X27	Y27	Z27	X28	Y28	Z28	X29	Y29	Z29	X30	Y30	Z30	X31	Y31	Z31	X32	Y32	Z32	X33	Y33	Z33	X34	Y34	Z34	X35	Y35	Z35	X36	Y36	Z36	X37	Y37	Z37	X38	Y38	Z38	X39	Y39	Z39	X40	Y40	Z40	X41	Y41	Z41	X42	Y42	Z42	X43	Y43	Z43	X44	Y44	Z44	X45	Y45	Z45	X46	Y46	Z46	X47	Y47	Z47	X48	Y48	Z48	X49	Y49	Z49	X50	Y50	Z50	X51	Y51	Z51	X52	Y52	Z52	X53	Y53	Z53	X54	Y54	Z54	X55	Y55	Z55	X56	Y56	Z56	X57	Y57	Z57	X58	Y58	Z58	X59	Y59	Z59	X60	Y60	Z60	X61	Y61	Z61	X62	Y62	Z62	

1049	5.24	-159.4684448242188	1818.2578125	-958.144958496094	-316.1712036132813	1725.720336914063	-1007.01904296875	-261.7117309570313	1762.486694335938	-869.3296508789065	-336.6224975585938	1638.99072265625	-957.2991333007815	-359.0164794921876	1337.967895507813	-934.4904785156252	-187.6735229492188	1598.0546875	-936.8770141601565	-226.1874389648438	1626.19091796875	-1079.967651367188	-262.7846679687501	1505.877685546875	-1214.055419921875	-227.4186553955079	1470.648071289063	-1213.345825195313	-269.4992065429688	1446.660400390625	-1250.897216796875	-269.7710266113282	1389.482299804688	-1265.6484375	-331.9472351074219	1381.19482421875	-1240.590942382813	-170.6649017333985	1186.67236328125	-1185.623168945313	-212.7079620361329	1207.038452148438	-1132.176147460938	-178.596435546875	1156.473266601563	-1093.6396484375	-246.1543426513672	1638.131958007813	-796.4458007812502	-298.9157714843751	1542.771606445313	-671.1725463867189	-260.0442810058594	1513.3310546875	-661.7756347656251	-300.8080444335938	1489.347900390625	-625.2792358398439	-297.7831420898438	1421.757568359375	-594.9281005859376	-356.2787780761719	1394.3896484375	-635.7347412109376	-236.0742492675782	1223.677001953125	-705.8594360351564	-196.4309997558594	1212.589233398438	-652.9080810546876	-200.4357452392579	1178.248657226563	-743.7796020507814	-158.6620178222657	1159.444091796875	-1037.320922851563	-188.8419494628907	1160.987548828125	-780.8444824218752	-354.0445251464844	1261.1142578125	-932.2161865234377	-371.9893188476563	1236.3857421875	-958.7292480468752	-375.9674682617188	1236.440185546875	-904.591979980469	-259.0966796875001	1024.318115234375	-1135.6162109375	-235.4403533935547	943.451354980469	-1138.121948242188	-191.6577453613282	943.7744750976565	-1119.504638671875	-269.3070068359376	894.2424926757815	-1138.205688476563	-316.8298034667969	742.6401367187501	-1124.193115234375	-303.2746582031251	694.2532958984376	-980.6096191406252	-258.5690307617188	549.9847412109376	-1079.86474609375	-285.8905029296876	524.0862426757814	-1159.336181640625	-262.0453796386719	511.0828247070314	-1121.9931640625	-273.4431762695313	427.1695556640626	-1107.535278320313	-343.4138793945313	362.9358215332032	-1167.809814453125	-313.7503662109376	350.9809875488282	-1090.97509765625	-390.4896545410157	373.6398925781251	-1123.696655273438	-255.5370788574219	237.7367401123047	-1109.294311523438	-249.2359313964844	228.3449249267579	-1157.827392578125	-299.2543640136719	239.4318237304688	-1197.347534179688	-333.3541259765626	966.601013183594	-719.7411499023439	-292.7922363281251	914.0315551757815	-707.5189208984376	-260.2916259765626	920.5764160156252	-704.5164794921876	-309.4431457519532	834.593688964844	-721.0740966796876	-292.4164123535157	721.8654174804689	-723.5423583984376	-247.936019897461	705.5846557617189	-862.9840087890627	-241.0101928710938	564.4527587890626	-733.5541381835939	-316.2245178222657	495.3037109375001	-689.6087036132814	-269.9091796875001	490.5010986328126	-697.3247070312501	-256.0183105468751	437.0433959960939	-720.2968139648439	-340.2152099609376	345.8990173339844	-705.9902954101564	-287.3566284179688	339.0153198242188	-767.4405517578126	-373.0271911621094	350.5223388671876	-758.3663940429689	-224.2034606933594	222.7640991210938	-733.9807128906251	-234.052474975586	223.1777496337891	-685.7952880859376	-292.1189575195313	222.552719116211	-661.6751708984376	nan	nan	nan	
1050	5.245	-159.5603179931641	1816.966186523438	-958.2500610351565	-314.0192871093751	1724.534301757813	-1007.382751464844	-261.6346740722657	1761.0185546875	-869.363220214844	-336.4218444824219	1637.782958984375	-957.3962402343752	-359.0184936523438	1337.023315429688	-934.388610839844	-187.4047546386719	1596.335205078125	-937.2222290039065	-226.042709350586	1624.757446289063	-1080.217407226563	-263.4342651367188	1504.6015625	-1214.36279296875	-228.067367553711	1469.06787109375	-1213.91650390625	-269.8250732421876	1445.171020507813	-1251.286743164063	-270.0868225097657	1387.902954101563	-1265.738037109375	-332.3595275878907	1379.56689453125	-1240.207885742188	-170.9401092529297	1185.896484375	-1185.32470703125	-213.9742431640626	1206.0087890625	-1131.909912109375	-178.6634979248047	1155.339111328125	-1093.529174804688	-246.0232696533204	1636.851806640625	-796.6271972656252	-298.4489746093751	1541.700317382813	-671.1679687500001	-259.7012939453126	1512.445678710938	-661.7293701171876	-300.0462951660157	1488.240234375	-625.3087768554689	-296.9972229003907	1421.065307617188	-594.9382934570314	-356.0628051757813	1393.41162109375	-635.0362548828126	-235.4533233642579	1222.697387695313	-705.5585937500001	-195.8338317871094	1211.560668945313	-652.5104980468751	-199.7317047119141	1176.9990234375	-743.4766235351564	-159.0222625732422	1159.044555664063	-1036.836547851563	-188.5926361083985	1160.237548828125	-781.3323974609377	-354.2471313476563	1260.046508789063	-932.0119628906252	-371.4176330566407	1234.822509765625	-958.7407226562502	-375.9704895019532	1235.183959960938	-904.2735595703127	-258.8661499023438	1022.737182617188	-1136.15771484375	-235.6623229980469	941.6796875000002	-1138.228881835938	-191.9766998291016	942.4261474609377	-1119.8193359375	-268.8592529296876	892.394958496094	-1137.903442382813	-317.1659851074219	741.0017089843751	-1124.169677734375	-302.3305053710938	692.7366943359376	-980.5101318359377	-257.2641601562501	548.6643066406251	-1080.205322265625	-284.8386840820313	522.5573120117189	-1159.7138671875	-260.5869750976563	510.1190185546876	-1122.458984375	-271.6819763183594	425.9443664550782	-1107.494384765625	-341.0180664062501	360.8434143066407	-1167.640991210938	-311.0913391113282	349.2560424804688	-1090.965209960938	-388.0897216796876	371.2441101074219	-1123.731323242188	-251.9578552246094	236.1615753173829	-1109.67431640625	-246.3925781250001	227.4310455322266	-1158.162231445313	-296.2167053222657	238.2163848876954	-1197.650634765625	-331.8617248535157	964.872985839844	-719.3603515625001	-291.0690307617188	912.4320068359377	-707.4069213867189	-258.6865539550782	918.8890380859377	-704.4949951171876	-308.0298156738282	833.0837402343752	-720.9747924804689	-291.3442993164063	720.2418823242189	-723.3103637695314	-248.1791992187501	704.4579467773439	-863.5120849609377	-239.8013610839844	562.9514160156251	-733.3582153320314	-315.2033081054688	493.6831970214845	-689.1050415039064	-268.9644775390626	489.0306091308595	-696.8609619140626	-254.5295562744141	435.7752990722657	-720.0759277343751	-338.7675781250001	344.4313659667969	-705.5718383789064	-285.9977111816407	337.3700866699219	-766.9813842773439	-371.5866699218751	348.5606079101563	-757.8432006835939	-222.1924743652344	221.6264343261719	-732.7191162109376	-232.1815185546876	222.3237304687501	-684.6495971679689	-290.0485229492188	221.7723846435547	-660.7896728515626	nan	nan	nan	
1051	5.25	-159.8079528808594	1815.479614257813	-958.1777954101565	-313.9855346679688	1722.890380859375	-1007.490600585938	-261.8453369140626	1759.155639648438	-869.2242431640627	-336.1040039062501	1636.166137695313	-957.5858154296877	-359.2575988769532	1335.6806640625	-934.2446899414065	-187.7431335449219	1595.104614257813	-937.2340087890627	-225.8005523681641	1623.125	-1080.461059570313	-263.9648742675782	1502.817138671875	-1214.568725585938	-228.7586669921876	1467.683349609375	-1214.424682617188	-270.5317382812501	1443.511352539063	-1251.534912109375	-270.6952514648438	1386.220703125	-1265.968627929688	-332.7721862792969	1377.81591796875	-1239.756958007813	-171.0580596923828	1184.64501953125	-1185.144653320313	-213.3692626953126	1204.783935546875	-1131.81787109375	-178.4878997802735	1154.254516601563	-1093.50732421875	-246.0719299316407	1635.372680664063	-796.7745361328127	-297.7720031738282	1540.2509765625	-671.2659301757814	-259.1430969238282	1511.101440429688	-661.8555297851564	-299.2872924804688	1487.059814453125	-625.2572631835939	-296.3202819824219	1419.544555664063	-594.9544677734376	-355.7553405761719	1392.086547851563	-634.4886474609376	-235.5119323730469	1221.27978515625	-705.1541137695314	-195.4884185791016	1210.155883789063	-652.2792358398439	-199.5437622070313	1175.841552734375	-743.0438842773439	-159.2118682861328	1158.471801757813	-1036.651245117188	-188.0316619873047	1158.95947265625	-781.9329833984377	-354.4482727050782	1258.763305664063	-931.9251708984377	-371.5178833007813	1233.359008789063	-958.4598388671877	-376.0665588378907	1233.836303710938	-903.9138793945315	-258.9377441406251	1020.822021484375	-1136.472045898438	-235.3871765136719	940.0053710937502	-1138.591918945313	-191.5769805908203	940.437194824219	-1119.892578125	-269.0798645019532	890.7055664062502	-1138.070556640625	-317.2369995117188	739.2803955078126	-1124.108642578125	-301.1390380859376	690.9674072265626	-980.830993652344	-255.4711914062501	547.1903686523439	-1080.909301757813	-284.1976928710938	520.8038330078126	-1159.673461914063	-259.3147888183594	508.1723937988282	-1122.915161132813	-269.7104187011719	424.1895751953126	-1107.752075195313	-338.9408264160157	358.7776794433594	-1167.5263671875	-308.9928588867188	347.1869506835938	-1090.845092773438	-385.6045837402345	368.4990234375001	-1123.592407226563	-248.5293884277344	234.8645172119141	-1109.767211914063	-242.9541320800782	226.012435913086	-1158.12939453125	-292.9446105957032	236.4866180419922	-1197.757080078125	-330.6410522460938	962.8286743164065	-719.2575683593751	-289.7533569335938	910.403747558594	-707.1854858398439	-257.4559631347657	917.3889770507815	-704.5237426757814	-306.5256652832032	831.045104980469	-720.5567016601564	-290.3247070312501	718.3640747070314	-723.1724243164064	-247.7535705566407	702.9788818359376	-863.659851074219	-239.0480651855469	561.4558105468751	-733.0071411132814	-314.1920471191407	491.7746887207032	-688.8885498046876	-267.9633789062501	487.4012756347657	-696.6227416992189	-253.4242858886719	433.971160888672	-719.7489624023439	-337.2864074707032	342.4671325683594	-705.0673217773439	-284.7786560058594	335.7766723632813	-766.6600341796876	-370.5158691406251	346.4711303710938	-757.4241943359376	-220.0240783691407	220.4516906738282	-731.9838256835939	-230.0855102539063	221.2153778076172	-683.6994018554689	-287.8881225585938	220.3110809326172	-659.7086181640626	nan	nan	nan	
1052	5.255	-159.9811248779297	1813.766723632813	-958.2195434570315	-314.0407104492188	1720.9794921875	-1007.525573730469	-261.9284362792969	1757.265014648438	-869.2165527343752	-336.0296325683594	1634.303100585938	-957.6167602539065	-359.3906250000001	1334.01708984375	-934.0904541015627	-187.5827026367188	1593.285400390625	-937.5339965820315	-225.4939880371094	1621.17236328125	-1080.7216796875	-264.4159240722657	1501.055419921875	-1214.816284179688	-229.282943725586	1465.630126953125	-1214.695556640625	-270.9198913574219	1441.781860351563	-1251.840576171875	-271.3119201660157	1384.492309570313	-1266.261352539063	-333.1105651855469	1375.994995117188	-1239.421264648438	-171.0882873535157	1183.068603515625	-1185.159423828125	-213.6410064697266	1203.259033203125	-1131.703247070313	-178.8484954833985	1152.517456054688	-1093.425659179688	-245.9521636962891	1633.596801757813	-796.9424438476565	-297.2467956542969	1538.792846679688	-671.2683715820314	-258.4432373046876	1509.52587890625	-662.0492553710939	-298.4219665527344	1485.390502929688	-625.2269287109376	-295.4140319824219	1418.114868164063	-594.9228515625001	-355.3031921386719	1390.49609375	-634.1566772460939	-234.6582183837891	1219.72412109375	-704.9766235351564	-194.9266815185547	1208.554077148438	-652.0728149414064	-198.6044616699219	1174.423461914063	-742.8829345703126	-159.3672027587891	1157.426513671875	-1036.493408203125	-188.5651245117188	1157.869873046875	-782.5186767578127	-354.6482238769532	1256.991455078125	-931.751403808594	-372.2487487792969	1231.374267578125	-957.9608154296877	-376.0847167968751	1232.15478515625	-903.8021240234377	-259.0464782714844	1018.833679199219	-1136.73291015625	-235.5388793945313	937.8662719726565	-1138.713500976563	-191.6718444824219	938.520202636719	-1120.221801757813	-269.1036987304688	888.6680908203127	-1138.405151367188	-316.3714904785157	737.1494140625001	-1124.200073242188	-299.7342529296876	688.8643188476564	-980.724304199219	-254.3575744628907	545.1177368164064	-1081.067626953125	-283.2337036132813	518.4822998046876	-1160.067260742188	-258.0560607910157	506.3677062988282	-1122.970947265625	-267.4354553222657	422.3446044921876	-1107.89990234375	-336.3547668457032	356.2837219238282	-1167.352905273438	-306.2436218261719	345.0133361816407	-1090.643310546875	-383.3236999511719	365.6577148437501	-1123.43212890625	-245.1172943115235	233.3500671386719	-1109.696166992188	-238.8380279541016	224.2036132812501	-1158.18505859375	-289.3672790527344	234.6134643554688	-1197.778564453125	-329.4848632812501	961.0699462890627	-719.2169799804689	-288.5604248046876	908.6223144531252	-707.3428344726564	-256.2858276367188	915.3682250976565	-704.6386108398439	-305.1954650878907	828.949157714844	-720.1896972656251	-289.8463745117188	716.2410278320314	-723.0122680664064	-247.2830047607422	701.2952880859376	-863.6497802734377	-238.4575500488282	559.5504760742189	-732.7998046875001	-313.3837890625001	489.8662719726564	-688.6749267578126	-267.0952148437501	485.5117492675782	-696.2733154296876	-252.4855194091797	432.2238769531251	-719.2572631835939	-336.0260009765626	340.3646240234376	-704.7493286132814	-283.2904968261719	333.6182861328126	-766.1711425781251	-369.0315551757813	343.6343078613282	-757.0880126953126	-217.8842926025391	219.2322235107422	-731.0627441406251	-227.9091186523438	219.9549255371094	-682.7593994140626	-285.7840576171876	218.8605041503907	-658.8759155273439	nan	nan	nan	
